<?xml version="1.0" encoding="UTF-8"?>
<!DOCTYPE svg PUBLIC "-//W3C//DTD SVG 1.1//EN" "http://www.w3.org/Graphics/SVG/1.1/DTD/svg11.dtd">
<!-- Creator: CorelDRAW 2021.5 (Evaluation Version) -->
<svg xmlns="http://www.w3.org/2000/svg" xml:space="preserve" width="254mm" height="254mm" version="1.1" style="shape-rendering:geometricPrecision; text-rendering:geometricPrecision; image-rendering:optimizeQuality; fill-rule:evenodd; clip-rule:evenodd"
viewBox="0 0 25400 25400"
 xmlns:xlink="http://www.w3.org/1999/xlink"
 xmlns:xodm="http://www.corel.com/coreldraw/odm/2003">
 <defs>
  <style type="text/css">
   <![CDATA[
    .str0 {stroke:#FEFEFE;stroke-width:17.64;stroke-miterlimit:2.61313}
    .fil7 {fill:none}
    .fil3 {fill:#011133}
    .fil2 {fill:#FEFEFE;fill-rule:nonzero}
    .fil5 {fill:#FEFEFE;fill-rule:nonzero}
    .fil8 {fill:#FEFEFE;fill-rule:nonzero}
    .fil4 {fill:black;fill-rule:nonzero}
    .fil0 {fill:#FEFEFE;fill-rule:nonzero;fill-opacity:0.419608}
    .fil1 {fill:#FEFEFE;fill-rule:nonzero;fill-opacity:0.709804}
    .fil6 {fill:url(#id0)}
   ]]>
  </style>
  <linearGradient id="id0" gradientUnits="userSpaceOnUse" x1="-7239.33" y1="19789.85" x2="28478.28" y2="5049">
   <stop offset="0" style="stop-opacity:1; stop-color:#BF883B"/>
   <stop offset="0.380392" style="stop-opacity:1; stop-color:#EBAF34"/>
   <stop offset="0.760784" style="stop-opacity:1; stop-color:#F9E180"/>
   <stop offset="1" style="stop-opacity:1; stop-color:#BF883B"/>
  </linearGradient>
 </defs>
<symbol id="Symbol1" viewBox="18525.17 -6693.39 1879.81 1879.84">
 <polygon class="fil0" points="19542.51,-5712.71 20404.98,-5777.37 19540.22,-5798.08 19853.31,-6161.86 19505.89,-5830.71 19441.16,-6693.39 19420.38,-5828.63 19056.7,-6141.72 19387.78,-5794.2 18525.17,-5729.46 19389.93,-5708.79 19076.95,-5345.01 19424.29,-5676.05 19489.1,-4813.55 19509.88,-5678.24 19873.59,-5365.29 "/>
 <polygon class="fil1" points="19512.99,-5728.23 20046.84,-5768.27 19511.61,-5781.04 19705.39,-6006.22 19490.34,-5801.25 19450.3,-6335.18 19437.39,-5799.95 19212.31,-5993.73 19417.21,-5778.68 18883.35,-5738.6 19418.55,-5725.8 19224.91,-5500.62 19439.85,-5705.51 19479.97,-5171.69 19492.81,-5706.92 19717.91,-5513.21 "/>
</symbol>
<symbol id="Symbol2" viewBox="18525.17 -6693.39 1879.81 1879.84">
 <polygon class="fil2" points="19542.51,-5712.71 20404.98,-5777.37 19540.22,-5798.08 19853.31,-6161.86 19505.89,-5830.71 19441.16,-6693.39 19420.38,-5828.63 19056.7,-6141.72 19387.78,-5794.2 18525.17,-5729.46 19389.93,-5708.79 19076.95,-5345.01 19424.29,-5676.05 19489.1,-4813.55 19509.88,-5678.24 19873.59,-5365.29 "/>
</symbol>
<symbol id="Symbol4" viewBox="19241.53 -5977 447.14 447.18">
 <polygon class="fil2" points="19483.5,-5743.75 19688.67,-5759.16 19482.97,-5764.03 19557.51,-5850.6 19474.82,-5771.79 19459.44,-5977 19454.43,-5771.3 19367.96,-5845.77 19446.67,-5763.15 19241.53,-5747.77 19447.2,-5742.76 19372.83,-5656.26 19455.38,-5734.96 19470.87,-5529.82 19475.7,-5735.53 19562.24,-5661.13 "/>
</symbol>
<symbol id="Symbol3" viewBox="18883.35 -6335.18 1163.49 1163.49">
 <polygon class="fil2" points="19512.99,-5728.23 20046.84,-5768.27 19511.61,-5781.04 19705.39,-6006.22 19490.34,-5801.25 19450.3,-6335.18 19437.39,-5799.95 19212.31,-5993.73 19417.21,-5778.68 18883.35,-5738.6 19418.55,-5725.8 19224.91,-5500.62 19439.85,-5705.51 19479.97,-5171.69 19492.81,-5706.92 19717.91,-5513.21 "/>
</symbol>
 <g id="Layer_x0020_1">
  <metadata id="CorelCorpID_0Corel-Layer"/>
  <g id="_2971200605616">
   <polygon class="fil3" points="26166.27,25126.96 137.74,25126.96 137.74,45.43 26166.27,45.43 "/>
   <path class="fil4" d="M137.74 45.43l26061.9 0 0 25101.44 -26061.9 0 0 -25101.44zm33.6 25045.16l25961.34 0 0 -25008.8 -25961.34 0 0 25008.8z"/>
   <path class="fil5" d="M2790.94 23486.99l0 -2577.11 379.8 0 285.94 1339.64c28,130.12 52.68,260.2 74.09,390.32 21.41,129.51 40.6,261.4 58.16,394.45 14.82,-121.75 33.49,-247.13 56,-377.21 22.51,-130.12 48.87,-264.37 79.04,-403.97l289.22 -1343.23 381.47 0 0 2577.11 -217.34 0 0 -2394.14 -513.19 2394.14 -150.92 0 -508.24 -2394.14 0 2394.14 -214.03 0zm2265.47 0l0 -1108.54 -533.46 -1468.57 253.57 0 408.33 1172.74 397.9 -1172.74 250.82 0 -526.87 1468.57 0 1108.54 -250.29 0zm1951.61 0l-543.36 -2577.11 244.23 0 355.66 1757.3c12.07,53.47 28.53,164.55 49.93,332.68 4.42,31.46 7.7,54.63 9.91,69.52 12.6,-83.78 24.68,-158.04 36.75,-223.39 11.54,-65.97 23.62,-128.92 35.12,-188.91l352.38 -1747.2 233.23 0 -542.22 2577.11 -231.63 0zm1532.27 49.89c-216.81,0 -380.37,-113.46 -490.68,-340.39 -110.32,-226.93 -165.74,-560.19 -165.74,-999.83 0,-440.79 55.42,-774.09 165.74,-999.25 110.31,-225.15 273.87,-337.42 490.68,-337.42 215.13,0 378.69,112.89 490.11,338.62 111.41,225.77 167.37,558.42 167.37,998.05 0,439.64 -55.96,772.9 -167.37,999.83 -111.42,226.93 -274.98,340.39 -490.11,340.39zm0 -2438.09c-137.78,0 -238.75,83.78 -302.97,250.72 -64.23,166.94 -96.6,429.53 -96.6,787.16 0,409.91 31.27,705.16 94.39,886.36 62.58,181.17 164.09,271.5 305.18,271.5 137.2,0 237.64,-87.36 301.29,-261.39 64.22,-174.08 96.07,-452.71 96.07,-835.9 0,-380.18 -31.85,-658.81 -96.07,-834.66 -63.65,-175.84 -164.09,-263.79 -301.29,-263.79zm1398.34 2388.2l-218.45 0 -374.85 -2577.11 223.36 0 217.35 1533.34c18.09,128.3 31.27,240 40.07,334.45 8.76,95.04 13.71,183.56 15.92,267.34 6.59,-98.62 16.46,-198.44 29.07,-300.03 12.64,-101.59 28.56,-204.34 46.66,-308.9l285.94 -1526.2 194.84 0 285.94 1526.2c19.2,104.56 35.69,207.31 48.3,308.9 13.18,101.59 22.51,201.41 29.1,300.03 2.17,-87.94 7.12,-177.62 15.35,-269.11 7.7,-90.91 20.88,-201.98 38.97,-332.68l218.98 -1533.34 223.4 0 -375.95 2577.11 -217.35 0 -326.55 -1849.94c-9.33,-52.28 -17.56,-106.95 -24.15,-165.17 -6.05,-58.22 -11,-118.82 -14.28,-182.36 -8.8,91.49 -17.03,171.68 -24.68,241.77 -8.27,69.52 -16.5,127.16 -25.26,174.08l-311.73 1781.62zm2708.96 -860.22l0 179.39c0,146.16 -5.48,254.27 -15.92,324.4 -10.97,70.09 -28.53,129.5 -53.21,178.2 -40.61,76.64 -97.7,134.28 -170.69,173.49 -73.02,38.59 -162.45,58.22 -268.38,58.22 -30.21,0 -60.95,-1.77 -93.32,-5.94 -32.38,-4.16 -64.22,-9.52 -96.6,-16.65l9.9 -245.94c35.12,13.07 69.71,22.59 103.19,27.91 32.91,5.94 66.92,8.91 101.51,8.91 91.11,0 154.76,-30.88 189.92,-93.26 35.65,-61.77 53.21,-212.67 53.21,-453.29l0 -1852.33 240.39 0 0 1716.89zm371.46 860.22l0 -2577.11 1070.27 0 0 238.84 -826.57 0 0 887.56 605.91 0 0 235.26 -605.91 0 0 976.65 856.2 0 0 238.8 -1099.9 0zm1765 0l-218.45 0 -374.85 -2577.11 223.37 0 217.34 1533.34c18.1,128.3 31.27,240 40.07,334.45 8.76,95.04 13.72,183.56 15.93,267.34 6.59,-98.62 16.45,-198.44 29.06,-300.03 12.64,-101.59 28.57,-204.34 46.66,-308.9l285.95 -1526.2 194.83 0 285.94 1526.2c19.2,104.56 35.7,207.31 48.3,308.9 13.18,101.59 22.51,201.41 29.1,300.03 2.18,-87.94 7.13,-177.62 15.35,-269.11 7.7,-90.91 20.88,-201.98 38.97,-332.68l218.98 -1533.34 223.41 0 -375.96 2577.11 -217.34 0 -326.55 -1849.94c-9.34,-52.28 -17.56,-106.95 -24.15,-165.17 -6.06,-58.22 -11.01,-118.82 -14.29,-182.36 -8.8,91.49 -17.02,171.68 -24.68,241.77 -8.27,69.52 -16.49,127.16 -25.25,174.08l-311.74 1781.62zm1547.05 0l0 -2577.11 1070.27 0 0 238.84 -826.57 0 0 887.56 605.91 0 0 235.26 -605.91 0 0 976.65 856.2 0 0 238.8 -1099.9 0zm1336.33 0l0 -2577.11 246.98 0 0 2331.18 747.53 0 0 245.93 -994.51 0zm1098.69 -684.37l230.52 0c8.8,168.71 43.92,293.47 105.4,374.28 61.44,80.77 152.55,121.18 273.87,121.18 103.72,0 187.67,-38.63 251.89,-116.43 64.22,-77.85 96.6,-181.21 96.6,-310.14 0,-112.84 -29.64,-216.21 -89.48,-309.51 -59.8,-93.26 -183.29,-215.05 -370.43,-364.76 -187.71,-150.86 -311.77,-279.21 -372.14,-384.92 -59.8,-105.76 -90.01,-229.94 -90.01,-372.52 0,-165.12 49.94,-302.95 150.38,-413.45 100.45,-111.11 226.15,-166.36 377.06,-166.36 177.84,0 317.79,61.18 419.87,183.55 102.08,122.99 155.87,294.1 162.46,515.09l-223.94 0c-10.97,-158.04 -44.98,-277.44 -103.18,-357.63 -57.63,-80.19 -139.41,-120.02 -244.77,-120.02 -97.71,0 -175.64,32.7 -233.8,97.43 -57.63,65.35 -86.74,152.09 -86.74,261.39 0,55.87 10.44,109.92 30.74,162.78 20.31,52.9 48.84,100.4 85.06,142 53.82,60.6 134.5,134.24 242.07,220.99 107.56,87.32 175.06,142.57 203.06,166.94 133.92,117.63 229.95,232.29 287.58,344.56 57.63,112.88 86.73,240.61 86.73,383.19 0,203.76 -53.78,367.73 -160.82,491.29 -107.56,123.57 -248.61,185.33 -424.78,185.33 -188.82,0 -335.35,-63.53 -440.75,-191.26 -104.82,-127.73 -159.14,-308.94 -162.45,-543zm2188.68 684.37l0 -2577.11 246.98 0 0 2331.18 747.53 0 0 245.93 -994.51 0zm1207.36 0l0 -2577.11 246.97 0 0 2331.18 747.53 0 0 245.93 -994.5 0zm1437.88 -1397.28l207.48 0c159.67,0 280.42,-39.21 361.66,-117.63 81.79,-78.38 122.39,-194.85 122.39,-349.3 0,-159.19 -40.6,-278.01 -121.28,-356.43 -81.25,-78.42 -201.99,-117.63 -362.77,-117.63l-207.48 0 0 940.99zm-243.71 1397.28l0 -2577.11 397.93 0c257.42,0 450.04,58.25 577.38,174.07 126.77,115.86 190.45,291.12 190.45,525.19 0,234.64 -63.68,409.29 -190.45,525.14 -127.34,115.24 -319.96,172.88 -577.38,172.88l-154.22 0 0 1179.83 -243.71 0z"/>
   <path class="fil6" d="M10026.2 6049.59l-2481.28 6575.51 -232.58 0 -2052.83 -5119.56c-692.25,917.39 -1207.14,2146.63 -1351.81,3729.65 -303.9,3325.79 1442.56,4776.93 3537.71,4891.99 1210.47,66.44 2785.92,-541.44 3932.11,-1913.71l-957.41 -2370.6c-230.11,-573.09 -376.45,-910.45 -436.66,-1014.42 -101.91,-173.29 -240.48,-300.36 -418.21,-383.57 -175.15,-85.47 -413.1,-127.08 -716.32,-127.08l0 -249.54 3837.66 0 0 249.54 -185.63 0c-269.23,0 -475.77,55.5 -619.52,164.08 -143.8,108.58 -214.38,240.26 -214.38,392.78 0,159.47 112.4,524.54 337.21,1097.56l293.29 738.62c295.63,-683.2 499.59,-1473.91 572.26,-2376.61 225.06,-2794.84 -766.1,-3901.07 -2468.02,-4768.84 -961.36,-490.15 -2759.77,-248.15 -4226.94,976.48l1591.79 3969.32 1765.59 -4680.96c157.93,103.17 323.21,177.56 493.97,219.36zm-5358.88 -20.77l-556.78 -1388.57c-163.67,-412.55 -279.9,-664.23 -346.65,-755.12 -105.49,-142.17 -234.74,-254.02 -389.71,-335.62 -152.94,-79.27 -359.61,-130.55 -620.14,-153.86l0 -251.68 3492.49 0 0 251.68c-396.19,41.94 -652.46,114.19 -770.85,219.1 -116.29,104.91 -176.56,237.73 -176.56,403.2 0,226.04 96.85,582.64 290.69,1065.1l133.2 332.15c1731.16,-770.54 3695.27,-653.21 4706.91,-248.81 1842.89,736.76 3877.95,2134.94 3894.61,4901.87l3485.89 0 0 249.54 -277.13 0c-284.89,0 -494.03,55.5 -627.35,164.08 -133.38,108.58 -198.71,256.42 -198.71,443.67 0,231.05 114.99,637.72 345.11,1215.35l1994.59 4988.81 1973.74 -5060.4c224.8,-563.8 337.21,-954.32 337.21,-1171.54 0,-103.98 -36.59,-203.34 -109.81,-293.42 -75.76,-90.15 -167.32,-154.86 -279.72,-191.79 -196.06,-62.44 -446.96,-94.76 -758.14,-94.76l0 -249.54 3095.25 0 0 249.54c-269.23,0 -488.86,43.94 -658.76,129.42 -167.31,85.47 -329.38,244.94 -481.02,480.6 -101.97,157.12 -264.04,536.09 -483.61,1132.21l-2886.11 7408.02 -308.46 0 -2368.51 -5878.35 -2339.7 5878.35 -279.66 0 -1587.54 -3930.99c-1491.24,1020.36 -3346.22,1041.33 -4593.83,972.88 -2331.56,-128.01 -5206.07,-2446.66 -4867.87,-6147.73 193.72,-2119.78 1080.12,-3489.25 2216.93,-4333.39zm9650.42 4357.7c-3.08,64.44 -6.91,129.48 -12.15,195.39 -141.52,1774.81 -627.91,3029.09 -1299.93,3912.42l1045.51 2633.04 1728.01 -4381.07 -313.71 -771.75 -245.72 -619.22c-107.16,-228.78 -227.46,-427.51 -358.12,-600.8 -67.99,-85.48 -149.05,-159.47 -245.79,-219.57 -99.32,-62.7 -198.71,-112.92 -298.1,-148.44zm-4824.93 -8117l919.78 -732.02 -10.68 967.48 -909.1 -235.46zm1042.67 -722.07l1763.55 460.17 -618.59 828.57 -1155.82 -299.43 10.86 -989.31zm1883.85 510.65l556.59 1113.58 -1163.09 -301.23 606.5 -812.35zm532.53 1244.26l-2450.5 1349.24 0.31 -24.97 1225.53 -1641.46 1224.66 317.19zm-2447.84 1109.51l19.06 -1738.55 1071.73 277.6 -1090.79 1460.95zm-131.97 176.76l-937.97 -2197.38 966.35 250.29 -21.28 1937.54 -7.1 9.55z"/>
   <ellipse class="fil7 str0" cx="24028.97" cy="10840.95" rx="630.3" ry="682.25"/>
   <path class="fil8" d="M23767.75 11171.37l0 -604.1 -122.46 0 0 -56.65 306.51 0 0 56.65 -122.42 0 0 604.1 -61.63 0zm233.57 0l0 -660.75 97.36 0 73.32 343.48c7.16,33.36 13.53,66.71 19.01,100.07 5.49,33.19 10.4,67 14.89,101.13 3.81,-31.21 8.61,-63.37 14.36,-96.72 5.76,-33.36 12.54,-67.78 20.27,-103.57l74.16 -344.39 97.78 0 0 660.75 -55.69 0 0 -613.83 -131.6 613.83 -38.7 0 -130.31 -613.83 0 613.83 -54.85 0z"/>
   <g>
    <polygon class="fil0" points="12504.4,2270.16 14614.21,2092.47 12498.79,2035.55 13264.69,1035.84 12414.82,1945.88 12256.47,-424.86 12205.64,1951.6 11315.98,1091.19 12125.89,2046.22 10015.73,2224.13 12131.15,2280.93 11365.52,3280.64 12215.2,2370.91 12373.74,4741.16 12424.58,2364.89 13314.3,3224.91 "/>
   </g>
   <g>
    <polygon class="fil1" points="12432.18,2227.51 13738.11,2117.48 12428.81,2082.38 12902.84,1463.56 12376.78,2026.84 12278.83,559.54 12247.25,2030.42 11696.65,1497.89 12197.88,2088.87 10891.93,2199.01 12201.16,2234.19 11727.47,2853.01 12253.26,2289.95 12351.41,3756.95 12382.82,2286.07 12933.47,2818.41 "/>
   </g>
   <use transform="scale(2.44625 2.74812)" x="4810.68" y="561.79" width="447.14" height="447.18" xlink:href="#Symbol4"/>
  </g>
 </g>
</svg>
